<svg xmlns="http://www.w3.org/2000/svg" version="1.1" xmlns:xlink="http://www.w3.org/1999/xlink"
    xmlns:svgjs="http://svgjs.dev/svgjs" width="1440" height="1024" preserveAspectRatio="none" viewBox="0 0 1440 1024">
    <g mask="url(&quot;#SvgjsMask1837&quot;)" fill="none">
        <rect width="1440" height="1024" x="0" y="0" fill="url(&quot;#SvgjsRadialGradient1838&quot;)"></rect>
        <path
            d="M266.997,1094.399C359.101,1097.554,429.697,1021.161,473.835,940.26C515.834,863.279,530.089,770.189,484.873,695.052C440.827,621.859,352.405,594.897,266.997,596.554C184.858,598.147,103.209,631.427,63.286,703.229C24.301,773.344,46.275,855.73,83.33,926.883C124.352,1005.653,178.237,1091.358,266.997,1094.399"
            fill="rgba(74, 34, 128, 0.24)" class="triangle-float2"></path>
        <path
            d="M1169.54,423.447C1197.88,425.008,1228.05,418.433,1243.597,394.687C1260.472,368.914,1261.849,334.139,1244.82,308.468C1229.128,284.812,1197.877,281.355,1169.54,283.046C1144.654,284.531,1120.983,295.11,1108.363,316.61C1095.589,338.372,1095.841,365.344,1108.38,387.242C1120.998,409.277,1144.186,422.051,1169.54,423.447"
            fill="rgba(74, 34, 128, 0.24)" class="triangle-float1"></path>
        <path
            d="M183.081,577.66C228.769,578.505,270.656,555.83,296.183,517.929C325.508,474.388,348.335,417.814,320.865,373.08C294.077,329.457,234.206,331.134,183.081,333.749C137.891,336.06,90.683,347.036,67.72,386.026C44.479,425.488,53.377,474.641,76.997,513.877C99.805,551.765,138.866,576.843,183.081,577.66"
            fill="rgba(74, 34, 128, 0.24)" class="triangle-float1"></path>
        <path
            d="M704.572,1015.586C779.619,1012.785,842.681,965.573,880.66,900.785C919.141,835.14,930.87,756.207,896.381,688.379C858.502,613.882,788.035,558.776,704.572,554.474C613.455,549.778,519.506,586.933,475.158,666.668C431.769,744.679,455.101,840.251,504.142,914.838C548.172,981.804,624.484,1018.575,704.572,1015.586"
            fill="rgba(74, 34, 128, 0.24)" class="triangle-float2"></path>
        <path
            d="M371.664,1376.687C473.114,1378.447,551.123,1295.22,598.123,1205.297C641.37,1122.555,640.167,1027.186,597.834,943.972C550.621,851.164,475.791,760.442,371.664,760.143C267.2,759.843,188.998,848.76,143.23,942.664C103.244,1024.704,115.91,1116.907,158.417,1197.67C204.746,1285.695,272.206,1374.962,371.664,1376.687"
            fill="rgba(74, 34, 128, 0.24)" class="triangle-float3"></path>
        <path
            d="M528.546,1245.86C610.833,1244.684,672.568,1178.241,711.283,1105.621C747.398,1037.879,753.567,958.778,717.814,890.844C679.378,817.811,611.009,755.071,528.546,758.402C449.852,761.58,401.695,835.967,364.027,905.133C328.542,970.291,304.272,1044.164,336.532,1110.977C372.984,1186.471,444.721,1247.058,528.546,1245.86"
            fill="rgba(74, 34, 128, 0.24)" class="triangle-float1"></path>
    </g>
    <defs>
        <mask id="SvgjsMask1837">
            <rect width="1440" height="1024" fill="#ffffff"></rect>
        </mask>
        <radialGradient cx="100%" cy="100%" r="1766.97" gradientUnits="userSpaceOnUse" id="SvgjsRadialGradient1838">
            <stop stop-color="#0e2a47" offset="0"></stop>
            <stop stop-color="rgba(255, 255, 255, 0.19)" offset="0.45"></stop>
            <stop stop-color="rgba(217, 203, 228, 0.19)" offset="1"></stop>
        </radialGradient>
        <style>
            @keyframes float1 {
                0% {
                    transform: translate(0, 0)
                }

                50% {
                    transform: translate(-10px, 0)
                }

                100% {
                    transform: translate(0, 0)
                }
            }

            .triangle-float1 {
                animation: float1 5s infinite;
            }

            @keyframes float2 {
                0% {
                    transform: translate(0, 0)
                }

                50% {
                    transform: translate(-5px, -5px)
                }

                100% {
                    transform: translate(0, 0)
                }
            }

            .triangle-float2 {
                animation: float2 4s infinite;
            }

            @keyframes float3 {
                0% {
                    transform: translate(0, 0)
                }

                50% {
                    transform: translate(0, -10px)
                }

                100% {
                    transform: translate(0, 0)
                }
            }

            .triangle-float3 {
                animation: float3 6s infinite;
            }
        </style>
    </defs>
</svg>