<svg fill="none">
  <path fill="currentColor"
    d="M29.346 7.443c1.399 0 2.099 1.691 1.11 2.68l-1.322 1.322a12.552 12.552 0 0 1 1.555 15.05 12.554 12.554 0 0 1-16.157 4.835 12.556 12.556 0 0 1-7.016-9.535 1.57 1.57 0 1 1 3.107-.449 9.417 9.417 0 1 0 16.29-7.68l-1.15 1.15c-.99.99-2.68.29-2.68-1.11V7.444h6.263ZM9.742 13.722a1.57 1.57 0 1 1 0 3.139 1.57 1.57 0 0 1 0-3.14Zm3.531-4.317a1.57 1.57 0 1 1 0 3.14 1.57 1.57 0 0 1 0-3.14Zm5.101-1.962a1.57 1.57 0 1 1 0 3.14 1.57 1.57 0 0 1 0-3.14Z" />
</svg>